<svg width="100" height="100" viewBox="0 0 100 100" fill="none" xmlns="http://www.w3.org/2000/svg">
<path fill-rule="evenodd" clip-rule="evenodd" d="M55.0771 29.991V29.9992H21.1735V30.0074C17.7345 30.1772 14.9984 33.0178 14.9984 36.4995C14.9984 39.9797 17.7345 42.8217 21.1735 42.9901V42.9997H51.5031C62.2703 42.9997 71 51.7298 71 62.4992C71 73.27 62.2703 82 51.5031 82H8.17373V81.9918C4.73615 81.8219 2 78.9813 2 75.4997C2 72.0195 4.73615 69.1761 8.17373 69.0077V68.9995H51.8279V68.9926C55.2668 68.8228 58.0016 65.9794 58.0016 62.4992C58.0016 59.0176 55.2668 56.177 51.8279 56.0071V55.9989H21.4983C10.7297 55.9989 2 47.2689 2 36.4995C2 25.73 10.7297 17 21.4983 17H55.0771V17.0082C58.5161 17.1767 61.2509 20.0187 61.2509 23.4989C61.2509 26.9805 58.5161 29.8211 55.0771 29.991Z" fill="#383838"/>
<path fill-rule="evenodd" clip-rule="evenodd" d="M72.2728 17H99L71.7272 49.3726L99 82H72.2728L45 49.6L72.2728 17Z" fill="#84C341"/>
</svg>
