<svg width="576" height="112" viewBox="0 0 576 112" fill="none" xmlns="http://www.w3.org/2000/svg">
<path fill-rule="evenodd" clip-rule="evenodd" d="M75.028 59.2527V59.2607H41.9027V59.2687C38.5427 59.434 35.8693 62.1994 35.8693 65.5887C35.8693 68.9767 38.5427 71.7434 41.9027 71.9074V71.9167H71.536C82.056 71.9167 90.5853 80.4154 90.5853 90.8994C90.5853 101.385 82.056 109.883 71.536 109.883H29.2013V109.875C25.8427 109.71 23.1693 106.945 23.1693 103.555C23.1693 100.167 25.8427 97.3994 29.2013 97.2354V97.2274H71.8533V97.2207C75.2133 97.0554 77.8853 94.2874 77.8853 90.8994C77.8853 87.51 75.2133 84.7447 71.8533 84.5794V84.5714H42.22C31.6987 84.5714 23.1693 76.0727 23.1693 65.5887C23.1693 55.1047 31.6987 46.606 42.22 46.606H75.028V46.614C78.388 46.778 81.06 49.5447 81.06 52.9327C81.06 56.322 78.388 59.0874 75.028 59.2527Z" fill="#383838"/>
<path fill-rule="evenodd" clip-rule="evenodd" d="M91.334 46.6055H117.263L90.8047 78.1201L117.263 109.883H91.334L64.8753 78.3415L91.334 46.6055Z" fill="#84C341"/>
<path fill-rule="evenodd" clip-rule="evenodd" d="M0 46.8154L70.8934 0.999999L142 47L129.248 46.9571L70.9026 9.26677L12.5696 46.9571L0 46.8154Z" fill="#383838"/>
<path d="M563.734 94.2292V109.883H554.097V94.2292L543.109 66.4225H553.729L558.946 84.4078H559.07L564.349 66.4225H574.784L563.734 94.2292Z" fill="#383838"/>
<path d="M520.215 109.883V66.4215H541.207V75.0775H529.605V83.6095H540.287V91.7121H529.605V101.043H541.944V109.883H520.215Z" fill="#383838"/>
<path d="M504.684 109.883L495.414 89.6868H495.23V109.883H485.348V66.4215H495.23V84.5295H495.414L504.377 66.4215H515.365L504.193 86.3108L516.041 109.883H504.684Z" fill="#383838"/>
<path d="M469.695 80.0495C469.695 78.9441 469.542 78.0441 469.235 77.3495C468.929 76.6535 468.53 76.1001 468.038 75.6908C467.549 75.2828 467.005 75.0068 466.413 74.8615C465.819 74.7201 465.234 74.6468 464.662 74.6468H461.593V85.6348H464.478C465.869 85.6348 467.087 85.1961 468.131 84.3148C469.173 83.4361 469.695 82.0135 469.695 80.0495ZM470.279 109.883L464.467 92.5721H461.593V109.883H452.141V66.4215H466.043C470.247 66.4215 473.514 67.5175 475.842 69.7055C478.169 71.8961 479.334 75.1601 479.334 79.4975C479.334 81.0921 479.15 82.5255 478.782 83.7935C478.415 85.0628 477.935 86.1481 477.345 87.0468C476.753 87.9481 476.09 88.6855 475.357 89.2561C474.622 89.8308 473.909 90.2388 473.215 90.4855L480.622 109.883H470.279Z" fill="#383838"/>
<path d="M444.314 100.552C443.762 102.639 442.891 104.46 441.705 106.015C440.517 107.571 438.983 108.799 437.101 109.697C435.218 110.597 432.947 111.049 430.286 111.049C427.626 111.049 425.377 110.597 423.534 109.697C421.693 108.799 420.189 107.571 419.023 106.015C417.857 104.46 417.017 102.639 416.506 100.552C415.994 98.4654 415.738 96.2148 415.738 93.8001V66.4214H425.621V92.9401C425.621 94.1681 425.693 95.3134 425.837 96.3774C425.979 97.4428 426.235 98.3534 426.605 99.1094C426.971 99.8668 427.463 100.469 428.077 100.919C428.69 101.371 429.49 101.595 430.471 101.595C431.453 101.595 432.251 101.371 432.865 100.919C433.479 100.469 433.97 99.8668 434.339 99.1094C434.706 98.3534 434.962 97.4428 435.106 96.3774C435.249 95.3134 435.321 94.1681 435.321 92.9401V66.4214H445.142V93.8001C445.142 96.2148 444.866 98.4654 444.314 100.552Z" fill="#383838"/>
<path d="M404.69 74.7708V109.883H395.053V74.7708H387.073V66.4215H412.669V74.7708H404.69Z" fill="#383838"/>
<path d="M376.823 94.2292V109.883H367.184V94.2292L356.196 66.4226H366.816L372.034 84.4079H372.158L377.436 66.4226H387.872L376.823 94.2292Z" fill="#84C341"/>
<path d="M333.301 109.883V66.4215H354.293V75.0775H342.691V83.6095H353.374V91.7121H342.691V101.043H355.03V109.883H333.301Z" fill="#84C341"/>
<path d="M317.771 109.883L308.503 89.6868H308.319V109.883H298.436V66.4215H308.319V84.5295H308.503L317.465 66.4215H328.452L317.281 86.3108L329.128 109.883H317.771Z" fill="#84C341"/>
<path d="M286.65 74.7708V109.883H277.012V74.7708H269.032V66.4215H294.63V74.7708H286.65Z" fill="#383838"/>
<path d="M257.677 80.0495C257.677 78.9441 257.524 78.0441 257.217 77.3495C256.909 76.6535 256.51 76.1001 256.02 75.6908C255.528 75.2828 254.985 75.0068 254.393 74.8615C253.798 74.7201 253.216 74.6468 252.644 74.6468H249.574V85.6348H252.458C253.85 85.6348 255.068 85.1961 256.112 84.3148C257.154 83.4361 257.677 82.0135 257.677 80.0495ZM258.26 109.883L252.449 92.5721H249.574V109.883H240.121V66.4215H254.024C258.229 66.4215 261.496 67.5175 263.822 69.7055C266.149 71.8961 267.314 75.1601 267.314 79.4975C267.314 81.0921 267.13 82.5255 266.762 83.7935C266.396 85.0628 265.917 86.1481 265.325 87.0468C264.734 87.9481 264.072 88.6855 263.338 89.2561C262.602 89.8308 261.889 90.2388 261.197 90.4855L268.602 109.883H258.26Z" fill="#383838"/>
<path d="M219.557 75.8749H219.311L215.629 94.3509H223.056L219.557 75.8749ZM226.064 109.883L224.284 101.963H214.524L212.744 109.883H202.921L213.48 66.4216H225.819L236.315 109.883H226.064Z" fill="#383838"/>
<path d="M189.417 109.883L189.785 80.0495H189.54L182.236 109.883H175.3L168.24 80.0495H168.056L168.363 109.883H159.461V66.4215H171.861L178.86 94.4121H179.105L185.919 66.4215H199.055V109.883H189.417Z" fill="#383838"/>
<path d="M149.149 76.797C148.413 75.9356 147.553 75.2716 146.57 74.801C145.589 74.3316 144.565 74.0956 143.502 74.0956C142.397 74.0956 141.404 74.4436 140.525 75.141C139.644 75.837 139.205 76.9863 139.205 78.585C139.205 79.9356 139.654 80.9916 140.556 81.7503C141.454 82.509 142.785 83.3396 144.545 84.241C145.534 84.733 146.574 85.3183 147.666 85.993C148.757 86.669 149.757 87.4996 150.662 88.4836C151.569 89.4676 152.321 90.645 152.918 92.0183C153.516 93.3916 153.814 95.0223 153.814 96.9076C153.814 99.2436 153.444 101.304 152.702 103.086C151.96 104.87 150.961 106.345 149.705 107.513C148.449 108.681 146.998 109.562 145.356 110.158C143.71 110.752 142.008 111.049 140.249 111.049C137.629 111.049 135.246 110.557 133.097 109.576C130.949 108.594 129.22 107.448 127.91 106.138L132.944 98.7703C133.885 99.7543 134.969 100.542 136.197 101.136C137.425 101.729 138.673 102.025 139.941 102.025C141.128 102.025 142.13 101.637 142.95 100.858C143.768 100.082 144.177 98.9956 144.177 97.605C144.177 96.173 143.686 95.0383 142.704 94.1983C141.722 93.361 140.289 92.4703 138.406 91.529C137.22 90.9556 136.105 90.3223 135.062 89.625C134.018 88.9303 133.097 88.0916 132.3 87.109C131.501 86.1263 130.877 84.9823 130.426 83.6716C129.977 82.3623 129.752 80.8076 129.752 79.005C129.752 76.593 130.15 74.5156 130.949 72.7756C131.746 71.037 132.79 69.6143 134.08 68.509C135.369 67.4036 136.8 66.5863 138.376 66.053C139.952 65.5223 141.538 65.257 143.134 65.257C145.506 65.257 147.634 65.6423 149.517 66.4143C151.4 67.1863 152.976 68.2436 154.244 69.585L149.149 76.797Z" fill="#383838"/>
</svg>
