<svg width="720" height="420" viewBox="0 0 720 420" fill="none" xmlns="http://www.w3.org/2000/svg">
<g opacity=".18" stroke="#648381" stroke-width="2"><path d="M-20 82C90 20 170 145 286 94S494 5 750 72"/><path d="M-40 206C76 135 180 244 300 198S510 112 760 184"/><path d="M-10 342C112 270 204 390 342 326S540 240 760 305"/><path d="M98-20C72 95 178 176 142 440"/><path d="M338-20C282 104 390 190 326 440"/><path d="M588-20C526 116 636 226 566 450"/></g>
<g opacity=".32" stroke="#84C341" stroke-width="3"><path d="M0 278C144 206 242 304 382 254S590 172 730 208"/><circle cx="430" cy="240" r="20"/><path d="M430 218c-12 0-22 10-22 22 0 17 22 39 22 39s22-22 22-39c0-12-10-22-22-22Z" fill="#84C341" fill-opacity=".18"/><circle cx="430" cy="240" r="6" fill="#84C341"/></g>
<text x="456" y="248" fill="#84C341" fill-opacity=".5" font-family="Arial" font-size="12">41.0192, 28.6292</text>
</svg>
