<svg width="449" height="47" viewBox="0 0 449 47" fill="none" xmlns="http://www.w3.org/2000/svg">
<path d="M435.824 28.9722V44.6255H426.187V28.9722L415.199 1.16555H425.819L431.036 19.1509H431.16L436.439 1.16555H446.873L435.824 28.9722Z" fill="#383838"/>
<path d="M392.304 44.6259V1.16452H413.296V9.82052H401.695V18.3525H412.376V26.4552H401.695V35.7859H414.034V44.6259H392.304Z" fill="#383838"/>
<path d="M376.773 44.6259L367.504 24.4299H367.32V44.6259H357.437V1.16452H367.32V19.2725H367.504L376.467 1.16452H387.455L376.283 21.0539L388.131 44.6259H376.773Z" fill="#383838"/>
<path d="M341.785 14.7925C341.785 13.6872 341.632 12.7872 341.325 12.0925C341.018 11.3965 340.62 10.8432 340.128 10.4339C339.638 10.0259 339.094 9.74985 338.502 9.60452C337.909 9.46319 337.324 9.38985 336.752 9.38985H333.682V20.3779H336.568C337.958 20.3779 339.177 19.9392 340.221 19.0579C341.262 18.1792 341.785 16.7565 341.785 14.7925ZM342.369 44.6259L336.557 27.3152H333.682V44.6259H324.23V1.16452H338.133C342.337 1.16452 345.604 2.26052 347.932 4.44852C350.258 6.63919 351.424 9.90319 351.424 14.2405C351.424 15.8352 351.24 17.2685 350.872 18.5365C350.505 19.8059 350.025 20.8912 349.434 21.7899C348.842 22.6912 348.18 23.4285 347.446 23.9992C346.712 24.5739 345.998 24.9819 345.305 25.2285L352.712 44.6259H342.369Z" fill="#383838"/>
<path d="M316.403 35.2951C315.851 37.3818 314.981 39.2031 313.794 40.7578C312.606 42.3138 311.073 43.5418 309.19 44.4405C307.307 45.3405 305.037 45.7925 302.375 45.7925C299.715 45.7925 297.466 45.3405 295.623 44.4405C293.782 43.5418 292.278 42.3138 291.113 40.7578C289.946 39.2031 289.106 37.3818 288.595 35.2951C288.083 33.2085 287.827 30.9578 287.827 28.5431V1.16448H297.71V27.6831C297.71 28.9111 297.782 30.0565 297.926 31.1205C298.069 32.1858 298.325 33.0965 298.694 33.8525C299.061 34.6098 299.553 35.2125 300.166 35.6618C300.779 36.1138 301.579 36.3378 302.561 36.3378C303.542 36.3378 304.341 36.1138 304.954 35.6618C305.569 35.2125 306.059 34.6098 306.429 33.8525C306.795 33.0965 307.051 32.1858 307.195 31.1205C307.338 30.0565 307.41 28.9111 307.41 27.6831V1.16448H317.231V28.5431C317.231 30.9578 316.955 33.2085 316.403 35.2951Z" fill="#383838"/>
<path d="M276.78 9.51385V44.6259H267.142V9.51385H259.162V1.16452H284.758V9.51385H276.78Z" fill="#383838"/>
<path d="M248.913 28.9723V44.6256H239.274V28.9723L228.286 1.16561H238.906L244.123 19.1509H244.247L249.526 1.16561H259.962L248.913 28.9723Z" fill="#84C341"/>
<path d="M205.39 44.6259V1.16452H226.382V9.82052H214.781V18.3525H225.464V26.4552H214.781V35.7859H227.12V44.6259H205.39Z" fill="#84C341"/>
<path d="M189.86 44.6259L180.592 24.4299H180.408V44.6259H170.526V1.16452H180.408V19.2725H180.592L189.555 1.16452H200.542L189.371 21.0539L201.218 44.6259H189.86Z" fill="#84C341"/>
<path d="M158.739 9.51385V44.6259H149.102V9.51385H141.122V1.16452H166.719V9.51385H158.739Z" fill="#383838"/>
<path d="M129.767 14.7925C129.767 13.6872 129.613 12.7872 129.307 12.0925C128.999 11.3965 128.6 10.8432 128.109 10.4339C127.617 10.0259 127.075 9.74985 126.483 9.60452C125.888 9.46319 125.305 9.38985 124.733 9.38985H121.664V20.3779H124.548C125.94 20.3779 127.157 19.9392 128.201 19.0579C129.244 18.1792 129.767 16.7565 129.767 14.7925ZM130.349 44.6259L124.539 27.3152H121.664V44.6259H112.211V1.16452H126.113C130.319 1.16452 133.585 2.26052 135.912 4.44852C138.239 6.63919 139.404 9.90319 139.404 14.2405C139.404 15.8352 139.22 17.2685 138.852 18.5365C138.485 19.8059 138.007 20.8912 137.415 21.7899C136.824 22.6912 136.161 23.4285 135.428 23.9992C134.692 24.5739 133.979 24.9819 133.287 25.2285L140.692 44.6259H130.349Z" fill="#383838"/>
<path d="M91.6469 10.618H91.4002L87.7189 29.094H95.1456L91.6469 10.618ZM98.1536 44.626L96.3736 36.706H86.6136L84.8336 44.626H75.0109L85.5696 1.16464H97.9082L108.404 44.626H98.1536Z" fill="#383838"/>
<path d="M61.5069 44.6259L61.8749 14.7925H61.6296L54.3256 44.6259H47.3896L40.3296 14.7925H40.1456L40.4522 44.6259H31.5509V1.16452H43.9509L50.9496 29.1552H51.1949L58.0082 1.16452H71.1442V44.6259H61.5069Z" fill="#383838"/>
<path d="M21.2387 11.54C20.5027 10.6787 19.6427 10.0147 18.66 9.544C17.6787 9.07466 16.6547 8.83866 15.592 8.83866C14.4867 8.83866 13.4933 9.18666 12.6147 9.88399C11.7333 10.58 11.2947 11.7293 11.2947 13.328C11.2947 14.6787 11.744 15.7347 12.6453 16.4933C13.544 17.252 14.8747 18.0827 16.6347 18.984C17.624 19.476 18.664 20.0613 19.756 20.736C20.8467 21.412 21.8467 22.2427 22.752 23.2267C23.6587 24.2107 24.4107 25.388 25.008 26.7613C25.6053 28.1347 25.904 29.7653 25.904 31.6507C25.904 33.9867 25.5333 36.0467 24.792 37.8293C24.0493 39.6133 23.0507 41.088 21.7947 42.256C20.5387 43.424 19.088 44.3053 17.4453 44.9013C15.8 45.4947 14.0973 45.792 12.3387 45.792C9.71867 45.792 7.336 45.3 5.18667 44.3187C3.03867 43.3373 1.30933 42.1907 0 40.8813L5.03333 33.5133C5.97467 34.4973 7.05867 35.2853 8.28667 35.8787C9.51467 36.472 10.7627 36.768 12.0307 36.768C13.2173 36.768 14.22 36.38 15.04 35.6013C15.8573 34.8253 16.2667 33.7387 16.2667 32.348C16.2667 30.916 15.776 29.7813 14.7933 28.9413C13.812 28.104 12.3787 27.2133 10.496 26.272C9.30933 25.6987 8.19467 25.0653 7.152 24.368C6.108 23.6733 5.18667 22.8347 4.38933 21.852C3.59067 20.8693 2.96667 19.7253 2.516 18.4147C2.06667 17.1053 1.84133 15.5507 1.84133 13.748C1.84133 11.336 2.24 9.25866 3.03867 7.51866C3.836 5.77999 4.88 4.35733 6.16933 3.252C7.45867 2.14666 8.88933 1.32933 10.4653 0.795998C12.0413 0.265331 13.628 -2.35685e-06 15.224 -2.35685e-06C17.596 -2.35685e-06 19.724 0.385331 21.6067 1.15733C23.4893 1.92933 25.0653 2.98666 26.3333 4.328L21.2387 11.54Z" fill="#383838"/>
</svg>
