<svg width="142" height="111" viewBox="0 0 142 111" fill="none" xmlns="http://www.w3.org/2000/svg">
<style>.skt-mark-dark{fill:#383838}@media(prefers-color-scheme:dark){.skt-mark-dark{fill:#fff}}</style>
<path class="skt-mark-dark" fill-rule="evenodd" clip-rule="evenodd" d="M75.028 59.2527V59.2607H41.9027V59.2687C38.5427 59.434 35.8693 62.1994 35.8693 65.5887C35.8693 68.9767 38.5427 71.7434 41.9027 71.9074V71.9167H71.536C82.056 71.9167 90.5853 80.4154 90.5853 90.8994C90.5853 101.385 82.056 109.883 71.536 109.883H29.2013V109.875C25.8427 109.71 23.1693 106.945 23.1693 103.555C23.1693 100.167 25.8427 97.3994 29.2013 97.2354V97.2274H71.8533V97.2207C75.2133 97.0554 77.8853 94.2874 77.8853 90.8994C77.8853 87.51 75.2133 84.7447 71.8533 84.5794V84.5714H42.22C31.6987 84.5714 23.1693 76.0727 23.1693 65.5887C23.1693 55.1047 31.6987 46.606 42.22 46.606H75.028V46.614C78.388 46.778 81.06 49.5447 81.06 52.9327C81.06 56.322 78.388 59.0874 75.028 59.2527Z"/>
<path fill-rule="evenodd" clip-rule="evenodd" d="M91.334 46.6055H117.263L90.8047 78.1201L117.263 109.883H91.334L64.8753 78.3415L91.334 46.6055Z" fill="#84C341"/>
<path class="skt-mark-dark" fill-rule="evenodd" clip-rule="evenodd" d="M0 46.8154L70.8934 0.999999L142 47L129.248 46.9571L70.9026 9.26677L12.5696 46.9571L0 46.8154Z"/>
</svg>
